<?xml version="1.0" encoding="UTF-8"?>
<svg id="uuid-b74c0d87-1f1a-406f-bd2b-8e563ca5c698" data-name="Capa 2" xmlns="http://www.w3.org/2000/svg" xmlns:xlink="http://www.w3.org/1999/xlink" viewBox="0 0 352.026001 187.3309937">
  <defs>
    <style>
      .uuid-7357a306-1c17-48d4-b3fc-8933e5c3f396 {
        fill: url(#uuid-d65abd82-1295-4150-bd0e-508a2823234a);
      }

      .uuid-7357a306-1c17-48d4-b3fc-8933e5c3f396, .uuid-d55501d6-a904-46d6-8650-35633cdecce9, .uuid-9a563b58-8d32-4b7f-aaec-d61e90931ab8, .uuid-bfb04c5e-db44-43d4-a1de-3bd7f37b96ea, .uuid-8358a186-f3ce-4114-81b8-d3aba7f5ef1e, .uuid-4c2637a8-4eb2-4493-a108-1d11f2c2be18, .uuid-6d3d9fa8-2180-495c-86d6-a31223c5ce11, .uuid-87752a08-803e-4b17-b64d-aa331102cb6e, .uuid-ee350f92-1795-4e94-9da1-fdea7bec233f {
        stroke-width: 0px;
      }

      .uuid-d55501d6-a904-46d6-8650-35633cdecce9 {
        fill: #f27915;
      }

      .uuid-9a563b58-8d32-4b7f-aaec-d61e90931ab8 {
        fill: url(#uuid-550f5f88-4064-4df6-96a8-a620885751cb);
      }

      .uuid-bfb04c5e-db44-43d4-a1de-3bd7f37b96ea {
        fill: #f97d07;
      }

      .uuid-8358a186-f3ce-4114-81b8-d3aba7f5ef1e {
        fill: #a4a4a4;
      }

      .uuid-4c2637a8-4eb2-4493-a108-1d11f2c2be18 {
        fill: #1793cb;
      }

      .uuid-6d3d9fa8-2180-495c-86d6-a31223c5ce11 {
        fill: #a0a4a4;
      }

      .uuid-87752a08-803e-4b17-b64d-aa331102cb6e {
        fill: url(#uuid-bd537011-cbd4-45b1-8876-4fb835eb7c95);
      }

      .uuid-0c9a0b2e-5415-4eca-ab10-1083d0e6cb82 {
        fill: #149bd0;
        stroke: #0071bc;
        stroke-miterlimit: 10;
      }

      .uuid-ee350f92-1795-4e94-9da1-fdea7bec233f {
        fill: #288ab1;
      }
    </style>
    <linearGradient id="uuid-550f5f88-4064-4df6-96a8-a620885751cb" data-name="Degradado sin nombre 10" x1="-483" y1="1743.2768341" x2="-373" y2="1743.2768341" gradientTransform="translate(564 1798.2768341) scale(1 -1)" gradientUnits="userSpaceOnUse">
      <stop offset="0" stop-color="#2ecceb"/>
      <stop offset=".139858" stop-color="#25bbe2"/>
      <stop offset=".518073" stop-color="#1193cd"/>
      <stop offset=".817907" stop-color="#047ac0"/>
      <stop offset="1" stop-color="#0071bc"/>
    </linearGradient>
    <linearGradient id="uuid-d65abd82-1295-4150-bd0e-508a2823234a" data-name="Degradado sin nombre 10" x1="-500" y1="1726.2768341" x2="-447" y2="1726.2768341" xlink:href="#uuid-550f5f88-4064-4df6-96a8-a620885751cb"/>
    <linearGradient id="uuid-bd537011-cbd4-45b1-8876-4fb835eb7c95" data-name="Degradado sin nombre 10" x1="-511" y1="1713.7768341" x2="-451" y2="1713.7768341" xlink:href="#uuid-550f5f88-4064-4df6-96a8-a620885751cb"/>
  </defs>
  <g id="uuid-c771c19a-77ca-418c-bf40-c4414070eaf5" data-name="Layer 1">
    <path class="uuid-8358a186-f3ce-4114-81b8-d3aba7f5ef1e" d="M42.4925003,146.1179962c-2.209301,6.8610077-7.9665985,11.4080048-17.2441006,11.4080048-10.4502001,0-15.2484293-6.1390076-15.2484293-14.7160034,0-10.7379913,7.3281298-20.635994,19.8389292-20.635994,8.9428005,0,14.1955013,4.9629974,14.5898991,11.9179916h-8.3033981c-.2616005-2.197998-1.7294998-5.776001-6.9815998-5.776001-7.3379002,0-10.7921009,7.5-10.7921009,14.1490021,0,4.6900024,1.6289997,8.9179993,7.6513996,8.9179993,4.1200008,0,6.4540005-1.8249969,8.1859989-5.2649994h8.3034019Z"/>
    <path class="uuid-8358a186-f3ce-4114-81b8-d3aba7f5ef1e" d="M56.6806984,149l-4.7761993,7.8040009h-8.2898979l20.1688995-33.9079971h9.9785995l6.5418015,33.9079971h-7.9762039l-1.4295959-7.8040009h-14.2174034ZM69.8662033,142.6459961c-1.2140045-7.2200012-1.9821014-11.7009888-2.1916046-14.2429962h-.0483017c-1.2819977,2.7230072-3.8721962,7.4730072-7.6324959,14.2429962h9.8724022Z"/>
    <path class="uuid-8358a186-f3ce-4114-81b8-d3aba7f5ef1e" d="M95.1176987,143.6710052l-2.7751999,13.1329956h-7.6141968l7.1810989-33.9079971h16.1445999c6.4530029,0,11.1579971,3.2909927,11.1520004,9.0069962-.0060043,5.0240021-3.1870041,7.6470032-6.9540024,8.9660034,1.0060043.4669952,3.8919983,2.2369995,2.6829987,8.0309906-.848999,3.6920013-1.1069946,6.3430023-.8409958,7.904007h-7.6679993c-.2290039-1.5039978-.2080002-3.4909973.7559967-7.7050018.7850037-3.7660065.1520004-5.4279938-3.5479965-5.4279938h-8.516304ZM96.4037018,137.5709991h7.9793015c3.3559952,0,6.6409988-.9859924,6.6409988-4.7550049,0-2.4299927-1.6689987-3.8199921-4.9090042-3.8199921h-7.925499l-1.7857971,8.5749969Z"/>
    <path class="uuid-8358a186-f3ce-4114-81b8-d3aba7f5ef1e" d="M131.9250031,143.6710052l-2.7750092,13.1329956h-7.6139908l7.1809921-33.9079971h16.1439972c6.45401,0,11.1580048,3.2909927,11.1530151,9.0069962-.006012,5.0240021-3.1880035,7.6470032-6.95401,8.9660034,1.0059967.4669952,3.8910065,2.2369995,2.6829987,8.0309906-.848999,3.6920013-1.1069946,6.3430023-.8419952,7.904007h-7.6679993c-.2290039-1.5039978-.2080078-3.4909973.7570038-7.7050018.7849884-3.7660065.1519928-5.4279938-3.5480042-5.4279938h-8.5169983ZM133.2109985,137.5709991h7.9799957c3.3560028,0,6.6399994-.9859924,6.6399994-4.7550049,0-2.4299927-1.6679993-3.8199921-4.9089966-3.8199921h-7.9250031l-1.7859955,8.5749969Z"/>
    <path class="uuid-8358a186-f3ce-4114-81b8-d3aba7f5ef1e" d="M195.8829956,137.1300049c0,10.6539917-6.6809998,20.3959961-20.3629913,20.3959961-9.9759979,0-15.6370087-6.2030029-15.6370087-14.951004,0-9.6419983,6.2880096-20.4009933,20.2109985-20.4009933,9.803009,0,15.7890015,6.0889969,15.7890015,14.9560013ZM168.2350006,142.121994c0,5.9370117,2.7460022,9.2610016,8.1790009,9.2610016,7.7330017,0,11.1600037-7.375,11.1600037-14.4409943,0-4.6529999-2.1660004-8.6260071-8.1730042-8.6260071-7.4369965,0-11.1660004,7.3100128-11.1660004,13.8059998ZM194.4329987,113l-10.5679932,6.6809998h-8.0930023l8.4109955-6.6809998h10.25Z"/>
    <path class="uuid-0c9a0b2e-5415-4eca-ab10-1083d0e6cb82" d="M206.6640015,122.8960037h7.7409973l-5.8470001,27.5530014h18.3379974l-2.3539886,6.3549957h-25.0590057l7.1809998-33.9079971Z"/>
    <path class="uuid-0c9a0b2e-5415-4eca-ab10-1083d0e6cb82" d="M266.0360107,137.1300049c0,10.6539917-6.6809998,20.3959961-20.3620148,20.3959961-9.9769897,0-15.6380005-6.2030029-15.6380005-14.951004,0-9.6419983,6.2890015-20.4009933,20.2109985-20.4009933,9.8029938,0,15.7890167,6.0889969,15.7890167,14.9560013ZM238.3880005,142.121994c0,5.9370117,2.7460022,9.2610016,8.1790009,9.2610016,7.7330017,0,11.1599884-7.375,11.1599884-14.4409943,0-4.6529999-2.1659851-8.6260071-8.1729889-8.6260071-7.4369965,0-11.1660004,7.3100128-11.1660004,13.8059998Z"/>
    <path class="uuid-0c9a0b2e-5415-4eca-ab10-1083d0e6cb82" d="M301.5820007,156.8040009h-5.5549927c-.0360107-.7279968-.0130005-1.7449951.1999817-3.4389954-2.1210022,2.401001-4.9230042,4.1609955-10.9079895,4.1609955-9.7690125,0-14.0960083-6.9620056-14.1019897-14.9170074-.0050049-10.6009979,7.5809937-20.4349899,20.29599-20.4349899,10.053009,0,14.4129944,5.3669968,14.9710083,10.8570023h-8.1280212c-.3269958-2.029007-2.0109863-4.7570038-7.5189819-4.7570038-6.7879944,0-11.3099976,6.1170044-11.3099976,13.8150024,0,6.0119934,2.59198,9.2879944,8.0209961,9.2879944,6.993988,0,8.6480103-4.6819916,9.3160095-7.4689941l.0649719-.2250061h-8.5099792l1.4249878-6.1849976h15.8040161l-4.0660095,19.3059998Z"/>
    <path class="uuid-0c9a0b2e-5415-4eca-ab10-1083d0e6cb82" d="M347.303009,137.1300049c0,10.6539917-6.6809998,20.3959961-20.3619995,20.3959961-9.9760132,0-15.6370239-6.2030029-15.6370239-14.951004,0-9.6419983,6.2880249-20.4009933,20.210022-20.4009933,9.8029785,0,15.7890015,6.0889969,15.7890015,14.9560013ZM319.6560059,142.121994c0,5.9370117,2.7460022,9.2610016,8.178009,9.2610016,7.7329712,0,11.1599731-7.375,11.1599731-14.4409943,0-4.6529999-2.1659851-8.6260071-8.1729736-8.6260071-7.4360046,0-11.1650085,7.3100128-11.1650085,13.8059998Z"/>
    <path class="uuid-d55501d6-a904-46d6-8650-35633cdecce9" d="M27.8314991,177.5769958l-27.8314991,1.5230103,27.8314991,1.5219879v-3.0449982Z"/>
    <path class="uuid-d55501d6-a904-46d6-8650-35633cdecce9" d="M324.1950073,180.6589966l27.8309937-1.522995-27.8309937-1.522995v3.04599Z"/>
    <path class="uuid-4c2637a8-4eb2-4493-a108-1d11f2c2be18" d="M48.9603996,186.9730072h-2.7523003c-.0181007-.3600006-.0066986-.8640137.0992012-1.7030029-1.0509987,1.1889954-2.4397011,2.0609894-5.4057999,2.0609894-4.8405991,0-6.9849014-3.4499969-6.9876022-7.3919983-.0028992-5.2529907,3.7562027-10.1259918,10.057003-10.1259918,4.9820976,0,7.142498,2.6600037,7.4189987,5.3799896h-4.0279007c-.1622009-1.0049896-.9962997-2.3569946-3.7257996-2.3569946-3.3633995,0-5.6046982,3.0310059-5.6046982,6.8450012,0,2.9799957,1.2846985,4.6029968,3.9748993,4.6029968,3.4656982,0,4.2854996-2.3199921,4.6162987-3.701004l.032402-.1109924h-4.2168999l.7058983-3.0650024h7.8319016l-2.0156021,9.5660095Z"/>
    <path class="uuid-4c2637a8-4eb2-4493-a108-1d11f2c2be18" d="M56.7781982,181.6710052c-.0028992.0619965-.0057983.2529907-.0057983.3439941,0,1.378006.7370987,2.4640045,2.5042992,2.4640045,1.4179993,0,2.0282021-.4400024,2.5289001-1.1650085h3.8542976c-.8278961,2.1009979-2.8281975,3.9930115-6.6760979,3.9930115-4.0921974,0-5.8710976-2.5500031-5.8710976-5.6160126,0-3.3919983,2.3388977-7.3789978,7.5220985-7.3789978,4.0691032,0,5.8204002,2.3769989,5.8204002,5.2590027,0,.7319946-.0686035,1.3139954-.313797,2.1000061h-9.363205ZM62.9005013,179.3280029c0-.0449982.0028992-.154007.0028992-.2510071,0-1.2939911-.8069-2.1259918-2.4594002-2.1259918-1.7480011,0-2.7500992,1.0049896-3.1209984,2.3769989h5.5774994Z"/>
    <path class="uuid-4c2637a8-4eb2-4493-a108-1d11f2c2be18" d="M71.532402,183.1410065c.1629944,1.071991.9734955,1.595993,2.5146942,1.595993.9618073,0,2.0530014-.279007,2.0530014-1.1759949,0-.7340088-.5979996-1.0750122-2.6026993-1.5240021-3.6837997-.8419952-4.4582977-2.1049957-4.4582977-3.6289978,0-2.3010101,1.9171982-4.0960083,5.6067963-4.0960083,4.6128006,0,5.7881012,2.4860077,5.8511047,3.9680023h-3.740799c-.0858002-.7409973-.5940018-1.4790039-2.2140045-1.4790039-.7913971,0-1.6725006.2290039-1.6725006,1.0110016,0,.6289978.6150055.9410095,2.414505,1.3639984,3.6446991.8650055,4.6728973,2.0319977,4.6728973,3.8850098,0,2.5429993-2.1985016,4.2460022-6.1638031,4.2460022-3.3336945,0-5.816597-1.2990112-5.9386978-4.1660004h3.677803Z"/>
    <path class="uuid-4c2637a8-4eb2-4493-a108-1d11f2c2be18" d="M82.4860992,174.6459961h2.135498l.8162994-3.7019958h3.719902l-.8163986,3.7019958h2.7304993l-.5772018,2.7170105h-2.7304993l-1.1328964,5.348999c-.2289047,1.048996-.1738052,1.552002.9784012,1.552002.3679962,0,.9908981-.029007,1.3274994-.1040039l-.5531998,2.6309967c-.6688995.1909943-1.543602.2799988-2.4183044.2799988-2.9169998,0-3.6991959-1.3390045-3.2041016-3.7200012l1.2828064-5.9879913h-2.1355057l.5772018-2.7170105Z"/>
    <path class="uuid-4c2637a8-4eb2-4493-a108-1d11f2c2be18" d="M93.6507034,174.6459961h3.6987l-2.6116028,12.3270111h-3.6987l2.6116028-12.3270111ZM94.7705002,169.2100067h3.7198029l-.6506042,3.1139984h-3.7197952l.6505966-3.1139984Z"/>
    <path class="uuid-4c2637a8-4eb2-4493-a108-1d11f2c2be18" d="M112.6019974,179.9570007c0,3.7149963-2.4309998,7.3289948-7.7559967,7.3500061-4.2060013.0209961-6.1127014-2.6390076-6.1127014-5.5550079,0-4.0379944,2.7627029-7.4400024,7.7176971-7.4400024,3.9370041,0,6.151001,2.3890076,6.151001,5.6450043ZM102.5189972,181.5749969c0,1.7080078.901001,2.8619995,2.5569992,2.8619995,2.4900055,0,3.6570053-2.25,3.6570053-4.552002,0-1.5779877-.7929993-2.7449951-2.598999-2.7449951-2.2870026,0-3.6150055,2.0980072-3.6150055,4.4349976ZM113.0149994,169l-5.1189957,3.7279968h-3.4210052l3.9980011-3.7279968h4.5419998Z"/>
    <path class="uuid-4c2637a8-4eb2-4493-a108-1d11f2c2be18" d="M115.8580017,177.7570038c.2149963-1.0440063.4319992-2.1529999.6179962-3.1110077h3.651001c-.0359955.355011-.1609955,1.1900024-.2460022,1.6100006.6820068-.8519897,1.9360046-1.9440002,4.3280029-1.9440002,2.6699982,0,4.322998,1.5940094,3.552002,5.302002l-1.5630035,7.3590088h-3.7190018l1.4780045-7.0610046c.2910004-1.4109955.1409988-2.6190033-1.6600037-2.6190033-1.862999,0-2.9430008,1.3370056-3.4430008,3.727005l-1.2249985,5.9530029h-3.6989975l1.9280014-9.2160034Z"/>
    <path class="uuid-ee350f92-1795-4e94-9da1-fdea7bec233f" d="M139.4320068,181.4640045c.1279907,2.3170013,1.6889954,4.0149994,4.1349945,4.0149994,1.8849945,0,2.9259949-.7710114,3.5749969-1.9410095h2.2680054c-.6500092,1.7960052-2.355011,3.7690125-5.9640045,3.7690125-4.3240051,0-6.2899933-3.1610107-6.2899933-6.3339996,0-3.6460114,2.4259949-6.4070129,6.2339935-6.4070129,4.5809937,0,6.1950073,3.3570099,6.1950073,6.3010101,0,.2039948,0,.3619995-.0070038.5970001h-10.1459961ZM147.220993,179.8509979c-.1039886-1.4349976-.8649902-3.5180054-3.8479919-3.5180054-2.4730072,0-3.6840057,1.5450134-3.8930054,3.5180054h7.7409973Z"/>
    <path class="uuid-ee350f92-1795-4e94-9da1-fdea7bec233f" d="M152.8339996,177.9440002c0-1.0169983,0-2.1459961-.0240021-3.0440063h2.2050018c.0480042.4150085.0789948,1.4150085.0870056,2.2330017.5240021-1.1599884,1.7829895-2.5670013,4.3699951-2.5670013,2.8329926,0,4.6699982,1.7460022,4.6699982,5.0570068v7.3500061h-2.2830048v-6.9410095c0-1.9850006-.7599945-3.5589905-3.0049896-3.5589905-2.5110016,0-3.7440033,1.9149933-3.7440033,4.7109985v5.7890015h-2.276001v-9.029007Z"/>
    <path class="uuid-ee350f92-1795-4e94-9da1-fdea7bec233f" d="M175.5339966,178.0149994c0-1.0410004,0-2.0740051-.0240021-3.1150055h2.1910095c.0559998.4930115.0789948,1.1720123.0709991,1.8050079.6109924-1.0370026,1.7799988-2.1390076,3.897995-2.1390076,1.9909973,0,3.178009.95401,3.7030029,2.3120117.6450043-1.0440063,1.772995-2.3120117,4.1499939-2.3120117,2.3800049,0,4.3170013,1.3800049,4.3170013,4.9480133v7.4589996h-2.2449951v-7.3800049c0-1.4069977-.4550018-3.151001-2.6060028-3.151001-1.9189911,0-3.1679993,1.3059998-3.1679993,3.9109955v6.6200104h-2.253006v-7.477005c0-1.4450073-.493988-3.0540009-2.6209869-3.0540009-2.2730103,0-3.1600037,1.7799988-3.1600037,4.0820007v6.4490051h-2.253006v-8.9580078Z"/>
    <path class="uuid-ee350f92-1795-4e94-9da1-fdea7bec233f" d="M209.9649963,180.9329987c0,3.3540039-2.1669922,6.3740082-6.5019989,6.3740082-4.0820007,0-6.3609924-3.0200043-6.3609924-6.3580017,0-3.4609985,2.4160004-6.3830109,6.4799957-6.3830109,4.173996,0,6.3829956,3.1750031,6.3829956,6.3670044ZM199.4250031,180.9490051c0,2.2899933,1.4640045,4.4980011,4.1170044,4.4980011,2.7649994,0,4.0839996-2.0620117,4.0839996-4.4750061,0-2.4219971-1.4580078-4.5460052-4.1410065-4.5460052-2.7400055,0-4.0599976,2.102005-4.0599976,4.5230103Z"/>
    <path class="uuid-ee350f92-1795-4e94-9da1-fdea7bec233f" d="M213.8930054,174.8999939c1.098999,2.7779999,3.7259979,8.6800079,4.1719971,9.9790039h.0309906c.3310089-1.0299988,1.1410065-3.0659943,4.0990143-9.9790039h2.3239899l-5.2819977,12.0730133h-2.477005l-5.3320007-12.0730133h2.4650116Z"/>
    <path class="uuid-ee350f92-1795-4e94-9da1-fdea7bec233f" d="M227.1419983,169.0370026h2.2689972v2.727005h-2.2689972v-2.727005ZM227.1419983,174.8999939h2.2689972v12.0730133h-2.2689972v-12.0730133Z"/>
    <path class="uuid-ee350f92-1795-4e94-9da1-fdea7bec233f" d="M233.548996,178.0149994c0-1.0410004,0-2.0740051-.0240021-3.1150055h2.1910095c.0549927.4930115.0789948,1.1720123.0709991,1.8050079.6109924-1.0370026,1.7789917-2.1390076,3.897995-2.1390076,1.9900055,0,3.178009.95401,3.7030029,2.3120117.6439972-1.0440063,1.7720032-2.3120117,4.1490021-2.3120117,2.3800049,0,4.3179932,1.3800049,4.3179932,4.9480133v7.4589996h-2.2460022v-7.3800049c0-1.4069977-.4549866-3.151001-2.6049957-3.151001-1.9189911,0-3.1679993,1.3059998-3.1679993,3.9109955v6.6200104h-2.253006v-7.477005c0-1.4450073-.493988-3.0540009-2.621994-3.0540009-2.2720032,0-3.1589966,1.7799988-3.1589966,4.0820007v6.4490051h-2.253006v-8.9580078Z"/>
    <path class="uuid-ee350f92-1795-4e94-9da1-fdea7bec233f" d="M256.1140137,169.0370026h2.2679749v2.727005h-2.2679749v-2.727005ZM256.1140137,174.8999939h2.2679749v12.0730133h-2.2679749v-12.0730133Z"/>
    <path class="uuid-ee350f92-1795-4e94-9da1-fdea7bec233f" d="M263.9020081,181.4640045c.1279907,2.3170013,1.6889954,4.0149994,4.1349792,4.0149994,1.8850098,0,2.9260254-.7710114,3.5740051-1.9410095h2.2680054c-.6489868,1.7960052-2.355011,3.7690125-5.9630127,3.7690125-4.3239746,0-6.289978-3.1610107-6.289978-6.3339996,0-3.6460114,2.4259949-6.4070129,6.2330017-6.4070129,4.5820007,0,6.1959839,3.3570099,6.1959839,6.3010101,0,.2039948,0,.3619995-.0079956.5970001h-10.144989ZM271.6900024,179.8509979c-.1040039-1.4349976-.8640137-3.5180054-3.8470154-3.5180054-2.473999,0-3.6839905,1.5450134-3.8929749,3.5180054h7.7399902Z"/>
    <path class="uuid-ee350f92-1795-4e94-9da1-fdea7bec233f" d="M277.3039856,177.9440002c0-1.0169983,0-2.1459961-.0239868-3.0440063h2.2049866c.0480042.4150085.07901,1.4150085.0870056,2.2330017.5240173-1.1599884,1.78302-2.5670013,4.3699951-2.5670013,2.8330078,0,4.6700134,1.7460022,4.6700134,5.0570068v7.3500061h-2.2829895v-6.9410095c0-1.9850006-.7600098-3.5589905-3.0050049-3.5589905-2.5119934,0-3.7440186,1.9149933-3.7440186,4.7109985v5.7890015h-2.276001v-9.029007Z"/>
    <path class="uuid-ee350f92-1795-4e94-9da1-fdea7bec233f" d="M290.9440002,174.8999939h2.3970032v-3.8869934h2.276001v3.8869934h3.1459961v1.7890015h-3.1459961v6.6090088c0,1.3829956.3529968,1.9980011,1.6669922,1.9980011.3500061,0,.8370056-.0160065,1.1870117-.1040039v1.6710052c-.5450134.1909943-1.1750183.2220001-1.8699951.2220001-2.4990234,0-3.2600098-1.1170044-3.2600098-3.4940033v-6.9020081h-2.3970032v-1.7890015Z"/>
    <path class="uuid-ee350f92-1795-4e94-9da1-fdea7bec233f" d="M313.3800049,180.9329987c0,3.3540039-2.1669922,6.3740082-6.5010071,6.3740082-4.0820007,0-6.3619995-3.0200043-6.3619995-6.3580017,0-3.4609985,2.4160156-6.3830109,6.480011-6.3830109,4.1749878,0,6.3829956,3.1750031,6.3829956,6.3670044ZM302.8399963,180.9490051c0,2.2899933,1.4639893,4.4980011,4.1170044,4.4980011,2.7649841,0,4.0849915-2.0620117,4.0849915-4.4750061,0-2.4219971-1.4589844-4.5460052-4.1409912-4.5460052-2.7409973,0-4.0610046,2.102005-4.0610046,4.5230103Z"/>
    <path class="uuid-9a563b58-8d32-4b7f-aaec-d61e90931ab8" d="M182.2259979,43.0183983s5.5240021-3.8976974,8.7740021-4.9081993c0,0-5.3079987-25.4067993-12.4029999-38.110199l-97.5970001,5.9186401s30.3030014,24.7572594,38.5080032,104.0813599h3.7369995s1.4899979-38.4710999-15.1920013-83.2217999c0,0,12.1049957-1.0827007,7.2309952-12.9681005l46.6860046-2.8870993s1.625,8.9500999,12.0240021,7.6989994c0,0,.8659973-1.5398006,8.2319946,24.3963985Z"/>
    <path class="uuid-bfb04c5e-db44-43d4-a1de-3bd7f37b96ea" d="M119.9690018,37l-.9690018-5.4050999,50.7079926-1.5949001,1.2920074,4.8734016-51.0309982,2.1265984Z"/>
    <path class="uuid-bfb04c5e-db44-43d4-a1de-3bd7f37b96ea" d="M122,42.0379982l50.8079987-2.0379982,1.1920013,4.1646004-50.375,2.8353996-1.625-4.9620018Z"/>
    <path class="uuid-bfb04c5e-db44-43d4-a1de-3bd7f37b96ea" d="M125,52.3590012l45-2.3590012-7.6640015,6.2564011-36.4599991,1.7435989-.8759995-5.6409988Z"/>
    <path class="uuid-bfb04c5e-db44-43d4-a1de-3bd7f37b96ea" d="M128,64.3000031l27-1.3000031-5.4219971,5.9000015-20.8190002,1.0999985-.7590027-5.6999969Z"/>
    <path class="uuid-7357a306-1c17-48d4-b3fc-8933e5c3f396" d="M88.9268036,33s21.7811966,44.9177017,28.0731964,78h-1.935997s-23.3940048-52.3802986-51.064003-73.3894005l24.9268036-4.6105995Z"/>
    <path class="uuid-87752a08-803e-4b17-b64d-aa331102cb6e" d="M53,61.4076996l19.0083008-5.4076996s29.7517014,28.7922974,40.9916992,56.2689972l-1.8180008.7310028s-25.9505997-44.1384964-58.1819992-51.5923004Z"/>
    <path class="uuid-6d3d9fa8-2180-495c-86d6-a31223c5ce11" d="M181.6109924,86.6151962h-17.8939972l-2.6829987,12.8266068h20.3010101l-.8850098,2.270195h-22.4499969l6.4920044-30.711998h21.3840027l-.4900055,2.2703018h-18.8379974l-2.3410034,11.0750961h17.8939972l-.4900055,2.2697983Z"/>
    <path class="uuid-6d3d9fa8-2180-495c-86d6-a31223c5ce11" d="M193.0480042,71h2.5479889l-6.0029907,28.441803h18.2779999l-.8450012,2.270195h-20.4700012l6.4920044-30.711998Z"/>
  </g>
</svg>